<?xml version="1.0" encoding="UTF-8" standalone="no"?>
<!-- Created with Inkscape (http://www.inkscape.org/) -->

<svg
   version="1.1"
   id="svg2127"
   xml:space="preserve"
   width="682.66669"
   height="682.66669"
   viewBox="0 0 682.66669 682.66669"
   xmlns="http://www.w3.org/2000/svg"
   xmlns:svg="http://www.w3.org/2000/svg"><defs
     id="defs2131"><clipPath
       clipPathUnits="userSpaceOnUse"
       id="clipPath2141"><path
         d="M 0,512 H 512 V 0 H 0 Z"
         id="path2139" /></clipPath></defs><g
     id="g2133"
     transform="matrix(1.3333333,0,0,-1.3333333,0,682.66667)"><g
       id="g2135"><g
         id="g2137"
         clip-path="url(#clipPath2141)"><g
           id="g2143"
           transform="translate(48.0449,208.48)"><path
             d="m 0,0 v 202.057 c 0,14.475 11.733,26.209 26.208,26.209 h 363.494 c 14.475,0 26.209,-11.734 26.209,-26.209 V 0"
             style="fill:none;stroke:#000000;stroke-width:15;stroke-linecap:round;stroke-linejoin:round;stroke-miterlimit:10;stroke-dasharray:none;stroke-opacity:1"
             id="path2145" /></g><g
           id="g2147"
           transform="translate(340.4941,477.2905)"><path
             d="m 0,0 h -273.716 c -32.738,0 -59.278,-26.54 -59.278,-59.278 v -226.12 c 0,-24.194 14.494,-45.002 35.272,-54.216"
             style="fill:none;stroke:#000000;stroke-width:15;stroke-linecap:round;stroke-linejoin:round;stroke-miterlimit:10;stroke-dasharray:none;stroke-opacity:1"
             id="path2149" /></g><g
           id="g2151"
           transform="translate(77.7578,132.6147)"><path
             d="m 0,0 h 367.464 c 32.738,0 59.278,26.54 59.278,59.278 v 226.12 c 0,32.738 -26.54,59.278 -59.278,59.278 H 300.47"
             style="fill:none;stroke:#000000;stroke-width:15;stroke-linecap:round;stroke-linejoin:round;stroke-miterlimit:10;stroke-dasharray:none;stroke-opacity:1"
             id="path2153" /></g><g
           id="g2155"
           transform="translate(7.5,208.48)"><path
             d="M 0,0 H 497"
             style="fill:none;stroke:#000000;stroke-width:15;stroke-linecap:round;stroke-linejoin:round;stroke-miterlimit:10;stroke-dasharray:none;stroke-opacity:1"
             id="path2157" /></g><g
           id="g2159"
           transform="translate(184.166,74.1768)"><path
             d="M 0,0 8.707,58.438"
             style="fill:none;stroke:#000000;stroke-width:15;stroke-linecap:round;stroke-linejoin:round;stroke-miterlimit:10;stroke-dasharray:none;stroke-opacity:1"
             id="path2161" /></g><g
           id="g2163"
           transform="translate(319.127,132.6147)"><path
             d="M 0,0 8.707,-58.438"
             style="fill:none;stroke:#000000;stroke-width:15;stroke-linecap:round;stroke-linejoin:round;stroke-miterlimit:10;stroke-dasharray:none;stroke-opacity:1"
             id="path2165" /></g><g
           id="g2167"
           transform="translate(160.6846,34.7095)"><path
             d="m 0,0 h 190.631 c 8.302,0 14.272,7.981 11.928,15.945 l -1.734,5.889 c -3.077,10.455 -12.673,17.633 -23.571,17.633 H 13.377 c -10.898,0 -20.494,-7.178 -23.571,-17.633 l -1.734,-5.889 C -14.272,7.981 -8.302,0 0,0 Z"
             style="fill:none;stroke:#000000;stroke-width:15;stroke-linecap:round;stroke-linejoin:round;stroke-miterlimit:10;stroke-dasharray:none;stroke-opacity:1"
             id="path2169" /></g><g
           id="g2171"
           transform="translate(119.0859,353.8789)"><path
             d="M 0,0 -30.902,-30.902 0,-61.805"
             style="fill:none;stroke:#000000;stroke-width:15;stroke-linecap:round;stroke-linejoin:round;stroke-miterlimit:10;stroke-dasharray:none;stroke-opacity:1"
             id="path2173" /></g><g
           id="g2175"
           transform="translate(184.959,353.8789)"><path
             d="M 0,0 30.902,-30.902 0,-61.805"
             style="fill:none;stroke:#000000;stroke-width:15;stroke-linecap:round;stroke-linejoin:round;stroke-miterlimit:10;stroke-dasharray:none;stroke-opacity:1"
             id="path2177" /></g><g
           id="g2179"
           transform="translate(134.666,275.2915)"><path
             d="M 0,0 34.712,95.37"
             style="fill:none;stroke:#000000;stroke-width:15;stroke-linecap:round;stroke-linejoin:round;stroke-miterlimit:10;stroke-dasharray:none;stroke-opacity:1"
             id="path2181" /></g><g
           id="g2183"
           transform="translate(256,436.7461)"><path
             d="M 0,0 V -228.266"
             style="fill:none;stroke:#000000;stroke-width:15;stroke-linecap:round;stroke-linejoin:round;stroke-miterlimit:10;stroke-dasharray:none;stroke-opacity:1"
             id="path2185" /></g><g
           id="g2187"
           transform="translate(388.9277,295.0894)"><path
             d="M 0,0 H 29.811"
             style="fill:none;stroke:#000000;stroke-width:15;stroke-linecap:round;stroke-linejoin:round;stroke-miterlimit:10;stroke-dasharray:none;stroke-opacity:1"
             id="path2189" /></g><g
           id="g2191"
           transform="translate(301.2178,295.0894)"><path
             d="M 0,0 H 60.81"
             style="fill:none;stroke:#000000;stroke-width:15;stroke-linecap:round;stroke-linejoin:round;stroke-miterlimit:10;stroke-dasharray:none;stroke-opacity:1"
             id="path2193" /></g><g
           id="g2195"
           transform="translate(355.25,267.8145)"><path
             d="M 0,0 H 37.091"
             style="fill:none;stroke:#000000;stroke-width:15;stroke-linecap:round;stroke-linejoin:round;stroke-miterlimit:10;stroke-dasharray:none;stroke-opacity:1"
             id="path2197" /></g><g
           id="g2199"
           transform="translate(301.2178,267.8145)"><path
             d="M 0,0 H 27.131"
             style="fill:none;stroke:#000000;stroke-width:15;stroke-linecap:round;stroke-linejoin:round;stroke-miterlimit:10;stroke-dasharray:none;stroke-opacity:1"
             id="path2201" /></g><g
           id="g2203"
           transform="translate(353.3604,322.3643)"><path
             d="M 0,0 H 55.029"
             style="fill:none;stroke:#000000;stroke-width:15;stroke-linecap:round;stroke-linejoin:round;stroke-miterlimit:10;stroke-dasharray:none;stroke-opacity:1"
             id="path2205" /></g><g
           id="g2207"
           transform="translate(301.2178,322.3643)"><path
             d="M 0,0 H 25.242"
             style="fill:none;stroke:#000000;stroke-width:15;stroke-linecap:round;stroke-linejoin:round;stroke-miterlimit:10;stroke-dasharray:none;stroke-opacity:1"
             id="path2209" /></g><g
           id="g2211"
           transform="translate(387.2568,349.6396)"><path
             d="M 0,0 H 31.481"
             style="fill:none;stroke:#000000;stroke-width:15;stroke-linecap:round;stroke-linejoin:round;stroke-miterlimit:10;stroke-dasharray:none;stroke-opacity:1"
             id="path2213" /></g><g
           id="g2215"
           transform="translate(301.2178,349.6396)"><path
             d="M 0,0 H 59.138"
             style="fill:none;stroke:#000000;stroke-width:15;stroke-linecap:round;stroke-linejoin:round;stroke-miterlimit:10;stroke-dasharray:none;stroke-opacity:1"
             id="path2217" /></g><g
           id="g2219"
           transform="translate(355.25,376.9146)"><path
             d="M 0,0 H 33.521"
             style="fill:none;stroke:#000000;stroke-width:15;stroke-linecap:round;stroke-linejoin:round;stroke-miterlimit:10;stroke-dasharray:none;stroke-opacity:1"
             id="path2221" /></g><g
           id="g2223"
           transform="translate(301.2178,376.9146)"><path
             d="M 0,0 H 27.131"
             style="fill:none;stroke:#000000;stroke-width:15;stroke-linecap:round;stroke-linejoin:round;stroke-miterlimit:10;stroke-dasharray:none;stroke-opacity:1"
             id="path2225" /></g></g></g></g></svg>
